<svg xmlns="http://www.w3.org/2000/svg" width="645" height="166" viewBox="0 0 645 166" fill="none"><path d="M12.6362 30.7319C13.2162 30.0359 13.9122 29.6879 14.7242 29.6879C15.4202 29.6879 16.0582 29.9779 16.6382 30.5579C17.2182 31.0219 17.5082 31.6019 17.5082 32.2979C17.5082 32.7619 16.8702 33.8639 15.5942 35.6039C14.4342 37.3439 13.1002 39.5479 11.5922 42.2159C10.2002 44.7679 8.86623 47.6679 7.59023 50.9159C6.43023 54.0479 5.85023 57.1799 5.85023 60.3119C5.85023 64.6039 6.66223 68.4319 8.28623 71.7959C10.0262 75.1599 12.2882 77.9439 15.0722 80.1479C17.8562 82.3519 21.1042 84.0339 24.8162 85.1939C28.5282 86.3539 32.3562 86.9339 36.3002 86.9339C41.8682 86.9339 47.5522 86.1219 53.3522 84.4979C54.8602 81.1339 56.8322 76.7259 59.2682 71.2739C61.7042 65.7059 64.5462 59.8479 67.7942 53.6999C71.0422 47.4359 74.5802 41.1719 78.4082 34.9079C82.2362 28.5279 86.1802 22.7859 90.2402 17.6819C94.4162 12.5779 98.6502 8.45993 102.942 5.32793C107.234 2.07993 111.468 0.455933 115.644 0.455933C120.052 0.455933 123.474 2.02193 125.91 5.15393C128.346 8.16994 129.564 11.7659 129.564 15.9419C129.564 20.6979 128.346 25.6859 125.91 30.9059C123.59 36.0099 120.458 41.0559 116.514 46.0439C112.57 51.0319 108.046 55.8459 102.942 60.4859C97.9542 65.0099 92.7342 69.1859 87.2822 73.0139C81.9462 76.7259 76.6682 79.9739 71.4482 82.7579C66.2282 85.5419 61.5302 87.5719 57.3542 88.8479C53.5262 98.0119 49.8722 107.234 46.3922 116.514C43.0282 125.794 40.1862 135.306 37.8662 145.05C48.3062 142.034 58.8622 139.54 69.5342 137.568C80.3222 135.712 91.1682 134.784 102.072 134.784C103.928 134.784 106.48 134.842 109.728 134.958C113.092 135.19 116.398 135.654 119.646 136.35C123.01 137.046 125.91 138.09 128.346 139.482C130.782 140.99 132 143.078 132 145.746C132 146.442 131.71 147.08 131.13 147.66C130.666 148.24 130.086 148.53 129.39 148.53C128.23 148.53 127.534 148.298 127.302 147.834C127.186 147.486 126.896 146.964 126.432 146.268C125.388 144.644 123.822 143.368 121.734 142.44C119.762 141.628 117.558 141.048 115.122 140.7C112.686 140.352 110.25 140.12 107.814 140.004C105.378 140.004 103.29 140.004 101.55 140.004C90.9942 140.004 80.0902 141.048 68.8382 143.136C57.5862 145.34 46.8562 148.066 36.6482 151.314C36.5322 152.242 36.2422 152.996 35.7782 153.576C35.3142 154.272 34.5022 154.62 33.3422 154.62C32.4142 154.62 31.7182 154.098 31.2542 153.054C30.0942 153.402 28.0062 154.214 24.9902 155.49C21.9742 156.882 18.8422 158.274 15.5942 159.666C12.3462 161.174 9.44623 162.508 6.89423 163.668C4.45823 164.828 3.24023 165.408 3.24023 165.408C2.54423 165.408 1.90623 165.118 1.32623 164.538C0.746227 164.074 0.456227 163.494 0.456227 162.798C0.456227 162.102 1.09423 161.232 2.37023 160.188C3.76223 159.144 5.44423 158.1 7.41623 157.056C9.50423 156.012 11.8242 154.91 14.3762 153.75C16.9282 152.706 19.3642 151.72 21.6842 150.792C24.0042 149.98 26.0922 149.226 27.9482 148.53C29.8042 147.834 31.1382 147.37 31.9502 147.138C34.0382 137.278 36.7642 127.708 40.1282 118.428C43.4922 109.032 47.0302 99.7519 50.7422 90.5879C46.1022 91.6319 41.2882 92.1539 36.3002 92.1539C31.5442 92.1539 26.9622 91.4579 22.5542 90.0659C18.2622 88.6739 14.4342 86.6439 11.0702 83.9759C7.82223 81.1919 5.21223 77.8279 3.24023 73.8839C1.26823 69.9399 0.282227 65.4739 0.282227 60.4859C0.282227 58.0499 0.630227 55.4979 1.32623 52.8299C2.02223 50.0459 2.89223 47.3199 3.93623 44.6519C5.09623 41.9839 6.43023 39.4319 7.93823 36.9959C9.44623 34.5599 11.0122 32.4719 12.6362 30.7319ZM124.17 15.9419C124.17 13.2739 123.474 10.8959 122.082 8.80794C120.69 6.71994 118.544 5.67594 115.644 5.67594C112.28 5.67594 108.742 7.18394 105.03 10.1999C101.318 13.2159 97.6062 17.1019 93.8942 21.8579C90.2982 26.4979 86.7022 31.7179 83.1062 37.5179C79.6262 43.3179 76.3782 49.0599 73.3622 54.7439C70.4622 60.4279 67.8522 65.7059 65.5322 70.5779C63.3282 75.4499 61.5882 79.2779 60.3122 82.0619C63.9082 80.5539 67.9682 78.5239 72.4922 75.9719C77.1322 73.3039 81.7722 70.2299 86.4122 66.7499C91.1682 63.2699 95.8082 59.4999 100.332 55.4399C104.856 51.2639 108.858 46.9719 112.338 42.5639C115.934 38.1559 118.776 33.6899 120.864 29.1659C123.068 24.6419 124.17 20.2339 124.17 15.9419Z" fill="#262626"></path><path d="M147.316 96.5039C148.824 96.5039 150.158 96.9099 151.318 97.7219C152.594 98.5339 153.638 99.5779 154.45 100.854C154.798 100.39 155.378 99.6939 156.19 98.7659C157.118 97.7219 157.872 97.1999 158.452 97.1999C159.264 97.1999 159.902 97.3159 160.366 97.5479C160.946 97.7799 161.236 98.3599 161.236 99.2879C161.236 100.1 160.888 101.318 160.192 102.942C159.496 104.45 158.742 106.248 157.93 108.336C157.234 110.308 156.538 112.396 155.842 114.6C155.146 116.688 154.798 118.776 154.798 120.864C154.798 122.256 155.088 123.648 155.668 125.04C156.248 126.432 157.408 127.128 159.148 127.128C161.816 127.128 164.716 126.026 167.848 123.822C171.096 121.618 174.17 119.182 177.07 116.514C180.086 113.73 182.696 111.236 184.9 109.032C187.104 106.828 188.554 105.726 189.25 105.726C189.946 105.726 190.526 105.958 190.99 106.422C191.57 106.886 191.86 107.466 191.86 108.162C191.86 109.438 190.526 111.41 187.858 114.078C185.19 116.746 182.058 119.414 178.462 122.082C174.866 124.75 171.212 127.07 167.5 129.042C163.904 131.014 161.062 132 158.974 132C155.61 132 153.174 130.956 151.666 128.868C150.274 126.664 149.578 124.054 149.578 121.038C149.578 119.994 149.694 118.95 149.926 117.906C150.158 116.862 150.274 115.818 150.274 114.774C148.998 116.05 147.49 117.732 145.75 119.82C144.126 121.908 142.386 123.938 140.53 125.91C138.674 127.766 136.702 129.39 134.614 130.782C132.642 132.174 130.612 132.87 128.524 132.87C126.668 132.87 125.218 132.174 124.174 130.782C123.014 129.39 122.434 127.824 122.434 126.084C122.434 123.532 123.246 120.574 124.87 117.21C126.378 113.846 128.35 110.656 130.786 107.64C133.222 104.508 135.89 101.898 138.79 99.8099C141.69 97.6059 144.532 96.5039 147.316 96.5039ZM129.046 127.998C130.438 127.998 132.178 127.07 134.266 125.214C136.354 123.242 138.5 120.98 140.704 118.428C142.908 115.876 144.938 113.324 146.794 110.772C148.65 108.22 150.042 106.364 150.97 105.204C150.738 104.276 150.274 103.348 149.578 102.42C148.998 101.492 148.128 101.028 146.968 101.028C145.228 101.028 143.198 102.014 140.878 103.986C138.558 105.958 136.412 108.336 134.44 111.12C132.468 113.788 130.786 116.572 129.394 119.472C128.002 122.256 127.306 124.46 127.306 126.084C127.306 127.36 127.886 127.998 129.046 127.998Z" fill="#262626"></path><path d="M194.492 97.5479C195.072 97.5479 195.594 97.7799 196.058 98.2439C196.638 98.7079 196.928 99.2299 196.928 99.8099C196.928 100.274 196.464 101.492 195.536 103.464C194.608 105.32 193.622 107.524 192.578 110.076C191.534 112.628 190.548 115.238 189.62 117.906C188.692 120.574 188.228 122.952 188.228 125.04C188.228 125.62 188.286 126.374 188.402 127.302C188.634 128.23 189.214 128.694 190.142 128.694C191.302 128.694 192.81 127.94 194.666 126.432C196.522 124.808 198.494 122.836 200.582 120.516C202.67 118.196 204.816 115.702 207.02 113.034C209.224 110.25 211.254 107.698 213.11 105.378C214.966 103.058 216.59 101.144 217.982 99.6359C219.49 98.0119 220.476 97.1999 220.94 97.1999C221.752 97.1999 222.39 97.3159 222.854 97.5479C223.434 97.7799 223.724 98.3599 223.724 99.2879C223.724 100.1 223.376 101.318 222.68 102.942C221.984 104.566 221.23 106.364 220.418 108.336C219.722 110.308 219.026 112.396 218.33 114.6C217.634 116.804 217.286 118.892 217.286 120.864C217.286 122.372 217.576 123.822 218.156 125.214C218.736 126.49 219.838 127.128 221.462 127.128C224.13 127.128 227.03 126.026 230.162 123.822C233.41 121.618 236.484 119.182 239.384 116.514C242.4 113.73 245.01 111.236 247.214 109.032C249.534 106.828 251.042 105.726 251.738 105.726C253.362 105.726 254.174 106.538 254.174 108.162C254.174 108.626 253.942 109.206 253.478 109.902C251.97 111.758 249.882 113.962 247.214 116.514C244.662 118.95 241.878 121.328 238.862 123.648C235.846 125.968 232.772 127.94 229.64 129.564C226.624 131.188 223.898 132 221.462 132C218.098 132 215.662 130.956 214.154 128.868C212.762 126.664 212.066 124.054 212.066 121.038C212.066 119.762 212.182 118.486 212.414 117.21C212.762 115.934 212.936 114.658 212.936 113.382C211.776 114.774 210.21 116.572 208.238 118.776C206.382 120.98 204.352 123.184 202.148 125.388C200.06 127.592 197.914 129.506 195.71 131.13C193.506 132.638 191.476 133.392 189.62 133.392C187.3 133.392 185.676 132.58 184.748 130.956C183.704 129.332 183.182 127.534 183.182 125.562C183.182 124.75 183.356 123.532 183.704 121.908C184.052 120.284 184.516 118.428 185.096 116.34C185.676 114.252 186.372 112.106 187.184 109.902C187.88 107.698 188.634 105.668 189.446 103.812C190.258 101.956 191.07 100.448 191.882 99.2879C192.81 98.1279 193.68 97.5479 194.492 97.5479Z" fill="#262626"></path><path d="M256.166 99.6359C254.542 98.9399 252.918 97.8959 251.294 96.5039C249.786 95.1119 249.032 93.4299 249.032 91.4579C249.032 89.8339 249.554 88.3259 250.598 86.9339C251.758 85.4259 253.092 84.1499 254.6 83.1059C256.224 81.9459 257.906 81.0759 259.646 80.4959C261.502 79.7999 263.184 79.4519 264.692 79.4519C266.084 79.4519 267.302 79.7999 268.346 80.4959C269.39 81.0759 269.912 82.1779 269.912 83.8019C269.912 86.0059 269.158 88.3839 267.65 90.9359C266.258 93.4879 264.924 95.6339 263.648 97.3739C264.46 97.6059 265.388 97.9539 266.432 98.4179C267.592 98.7659 268.636 99.2299 269.564 99.8099C270.608 100.274 271.478 100.912 272.174 101.724C272.87 102.42 273.218 103.29 273.218 104.334C273.218 105.842 272.464 107.756 270.956 110.076C269.448 112.396 267.824 114.89 266.084 117.558C264.344 120.11 262.72 122.778 261.212 125.562C259.704 128.346 258.95 131.072 258.95 133.74C258.95 135.944 260.168 137.046 262.604 137.046C264.808 137.046 267.128 136.292 269.564 134.784C272.116 133.276 274.668 131.42 277.22 129.216C279.888 127.012 282.44 124.634 284.876 122.082C287.428 119.414 289.69 116.978 291.662 114.774C293.75 112.57 295.548 110.714 297.056 109.206C298.564 107.698 299.55 106.944 300.014 106.944C300.71 106.944 301.29 107.176 301.754 107.64C302.334 108.104 302.624 108.684 302.624 109.38C302.624 109.612 302.566 109.902 302.45 110.25C302.334 110.482 302.218 110.714 302.102 110.946C300.478 113.266 298.042 116.166 294.794 119.646C291.546 123.126 288.008 126.548 284.18 129.912C280.352 133.16 276.466 135.944 272.522 138.264C268.694 140.7 265.33 141.918 262.43 141.918C259.994 141.918 257.848 141.164 255.992 139.656C254.136 138.148 253.208 136.06 253.208 133.392C253.208 130.724 253.73 128.172 254.774 125.736C255.934 123.3 257.268 120.922 258.776 118.602C260.4 116.282 262.024 114.02 263.648 111.816C265.272 109.496 266.606 107.234 267.65 105.03C267.302 104.218 266.258 103.522 264.518 102.942C262.894 102.246 261.676 101.782 260.864 101.55C260.516 102.13 259.82 103.116 258.776 104.508C257.732 105.784 256.63 107.118 255.47 108.51C254.31 109.902 253.15 111.178 251.99 112.338C250.946 113.382 250.134 113.904 249.554 113.904C248.858 113.904 248.22 113.672 247.64 113.208C247.06 112.744 246.77 112.164 246.77 111.468C246.77 111.236 247.234 110.598 248.162 109.554C248.974 108.394 249.902 107.176 250.946 105.9C251.99 104.508 253.034 103.232 254.078 102.072C255.122 100.912 255.818 100.1 256.166 99.6359ZM259.124 95.6339C259.472 95.0539 259.994 94.2999 260.69 93.3719C261.386 92.3279 262.024 91.2839 262.604 90.2399C263.3 89.1959 263.88 88.1519 264.344 87.1079C264.808 86.0639 265.04 85.1939 265.04 84.4979V83.9759H264.866C264.054 83.9759 263.068 84.2079 261.908 84.6719C260.748 85.0199 259.588 85.5419 258.428 86.2379C257.384 86.9339 256.456 87.7459 255.644 88.6739C254.948 89.4859 254.6 90.3559 254.6 91.2839C254.6 92.4439 255.122 93.3719 256.166 94.0679C257.21 94.7639 258.196 95.2859 259.124 95.6339Z" fill="#262626"></path><path d="M315.709 96.5039C317.217 96.5039 318.551 96.9099 319.711 97.7219C320.987 98.5339 322.031 99.5779 322.843 100.854C323.191 100.39 323.771 99.6939 324.583 98.7659C325.511 97.7219 326.265 97.1999 326.845 97.1999C327.657 97.1999 328.295 97.3159 328.759 97.5479C329.339 97.7799 329.629 98.3599 329.629 99.2879C329.629 100.1 329.281 101.318 328.585 102.942C327.889 104.45 327.135 106.248 326.323 108.336C325.627 110.308 324.931 112.396 324.235 114.6C323.539 116.688 323.191 118.776 323.191 120.864C323.191 122.256 323.481 123.648 324.061 125.04C324.641 126.432 325.801 127.128 327.541 127.128C330.209 127.128 333.109 126.026 336.241 123.822C339.489 121.618 342.563 119.182 345.463 116.514C348.479 113.73 351.089 111.236 353.293 109.032C355.497 106.828 356.947 105.726 357.643 105.726C358.339 105.726 358.919 105.958 359.383 106.422C359.963 106.886 360.253 107.466 360.253 108.162C360.253 109.438 358.919 111.41 356.251 114.078C353.583 116.746 350.451 119.414 346.855 122.082C343.259 124.75 339.605 127.07 335.893 129.042C332.297 131.014 329.455 132 327.367 132C324.003 132 321.567 130.956 320.059 128.868C318.667 126.664 317.971 124.054 317.971 121.038C317.971 119.994 318.087 118.95 318.319 117.906C318.551 116.862 318.667 115.818 318.667 114.774C317.391 116.05 315.883 117.732 314.143 119.82C312.519 121.908 310.779 123.938 308.923 125.91C307.067 127.766 305.095 129.39 303.007 130.782C301.035 132.174 299.005 132.87 296.917 132.87C295.061 132.87 293.611 132.174 292.567 130.782C291.407 129.39 290.827 127.824 290.827 126.084C290.827 123.532 291.639 120.574 293.263 117.21C294.771 113.846 296.743 110.656 299.179 107.64C301.615 104.508 304.283 101.898 307.183 99.8099C310.083 97.6059 312.925 96.5039 315.709 96.5039ZM297.439 127.998C298.831 127.998 300.571 127.07 302.659 125.214C304.747 123.242 306.893 120.98 309.097 118.428C311.301 115.876 313.331 113.324 315.187 110.772C317.043 108.22 318.435 106.364 319.363 105.204C319.131 104.276 318.667 103.348 317.971 102.42C317.391 101.492 316.521 101.028 315.361 101.028C313.621 101.028 311.591 102.014 309.271 103.986C306.951 105.958 304.805 108.336 302.833 111.12C300.861 113.788 299.179 116.572 297.787 119.472C296.395 122.256 295.699 124.46 295.699 126.084C295.699 127.36 296.279 127.998 297.439 127.998Z" fill="#262626"></path><path d="M392.972 82.2359C392.972 72.7239 394.886 63.9079 398.714 55.7879C402.658 47.5519 407.82 40.2439 414.2 33.8639C420.58 27.4839 427.83 22.0899 435.95 17.6819C444.186 13.1579 452.596 9.79393 461.18 7.58993C465.24 6.66193 469.358 6.02393 473.534 5.67594C477.71 5.21194 481.886 4.97994 486.062 4.97994C492.21 4.97994 498.532 5.55994 505.028 6.71993C511.524 7.87993 517.44 9.90993 522.776 12.8099C528.228 15.5939 532.694 19.4219 536.174 24.2939C539.654 29.1659 541.394 35.3719 541.394 42.9119C541.394 48.7119 540.176 54.1639 537.74 59.2679C535.42 64.3719 532.346 68.9539 528.518 73.0139C524.69 77.0739 520.282 80.6699 515.294 83.8019C510.422 86.8179 505.434 89.1959 500.33 90.9359C502.998 92.2119 505.376 93.8359 507.464 95.8079C509.668 97.6639 511.408 99.9259 512.684 102.594C514.772 102.246 516.976 102.072 519.296 102.072C520.108 102.072 520.804 102.304 521.384 102.768C521.964 103.116 522.254 103.696 522.254 104.508C522.254 105.32 521.964 105.958 521.384 106.422C520.804 106.886 520.05 107.234 519.122 107.466C518.31 107.698 517.44 107.872 516.512 107.988C515.584 107.988 514.83 107.988 514.25 107.988C514.482 108.568 514.598 109.206 514.598 109.902C514.598 110.482 514.598 111.12 514.598 111.816C514.598 117.732 512.916 123.3 509.552 128.52C506.304 133.624 502.128 138.09 497.024 141.918C492.036 145.746 486.526 148.762 480.494 150.966C474.578 153.17 468.952 154.272 463.616 154.272C461.76 154.272 459.788 154.098 457.7 153.75C455.612 153.402 453.698 152.764 451.958 151.836C450.218 151.024 448.768 149.806 447.608 148.182C446.564 146.674 446.042 144.76 446.042 142.44C446.042 138.612 447.086 135.074 449.174 131.826C451.378 128.462 454.22 125.446 457.7 122.778C461.18 119.994 465.124 117.558 469.532 115.47C474.056 113.266 478.522 111.41 482.93 109.902C487.454 108.278 491.804 106.944 495.98 105.9C500.156 104.74 503.752 103.928 506.768 103.464C506.072 102.42 505.086 101.318 503.81 100.158C502.65 98.9979 501.316 97.9539 499.808 97.0259C498.416 95.9819 496.908 95.1119 495.284 94.4159C493.776 93.7199 492.384 93.3719 491.108 93.3719C488.208 93.3719 485.134 93.6619 481.886 94.2419C478.638 94.8219 475.332 95.1119 471.968 95.1119C471.272 95.1119 470.228 95.1119 468.836 95.1119C467.444 94.9959 466.052 94.8219 464.66 94.5899C463.384 94.2419 462.224 93.7779 461.18 93.1979C460.136 92.6179 459.614 91.7479 459.614 90.5879C459.614 89.5439 460.368 88.7319 461.876 88.1519C463.384 87.4559 465.124 86.9919 467.096 86.7599C469.184 86.4119 471.156 86.2379 473.012 86.2379C474.984 86.1219 476.318 86.0639 477.014 86.0639C482.234 86.0639 487.106 86.6439 491.63 87.8039C496.85 86.5279 502.07 84.5559 507.29 81.8879C512.626 79.2199 517.44 75.9719 521.732 72.1439C526.024 68.1999 529.504 63.7339 532.172 58.7459C534.84 53.7579 536.174 48.3059 536.174 42.3899C536.174 36.1259 534.492 30.9059 531.128 26.7299C527.764 22.5539 523.53 19.2479 518.426 16.8119C513.438 14.3759 507.986 12.6939 502.07 11.7659C496.27 10.7219 490.818 10.1999 485.714 10.1999C478.29 10.1999 470.982 11.0119 463.79 12.6359C456.598 14.1439 449.696 16.4639 443.084 19.5959C436.588 22.7279 430.556 26.6139 424.988 31.2539C419.42 35.8939 414.432 41.3459 410.024 47.6099C408.516 49.8139 407.008 52.3659 405.5 55.2659C404.108 58.1659 402.89 61.1819 401.846 64.3139C400.802 67.4459 399.932 70.5779 399.236 73.7099C398.656 76.8419 398.366 79.7999 398.366 82.5839C398.366 87.2239 399.062 90.8199 400.454 93.3719C401.846 95.9239 403.354 97.8959 404.978 99.2879C406.602 100.68 408.11 101.782 409.502 102.594C410.894 103.29 411.59 104.218 411.59 105.378C411.59 106.074 411.3 106.712 410.72 107.292C410.256 107.756 409.676 107.988 408.98 107.988C408.4 107.988 407.994 107.872 407.762 107.64C402.426 105.436 398.598 102.014 396.278 97.3739C394.074 92.7339 392.972 87.6879 392.972 82.2359ZM451.61 142.44C451.61 143.948 452.016 145.108 452.828 145.92C453.64 146.848 454.626 147.544 455.786 148.008C456.946 148.472 458.222 148.762 459.614 148.878C461.006 149.11 462.224 149.226 463.268 149.226C467.676 149.226 472.548 148.182 477.884 146.094C483.22 144.122 488.208 141.396 492.848 137.916C497.604 134.552 501.548 130.666 504.68 126.258C507.812 121.734 509.378 117.036 509.378 112.164C509.378 111.584 509.32 111.004 509.204 110.424C509.204 109.728 509.146 109.09 509.03 108.51C504.97 109.09 500.736 109.902 496.328 110.946C491.92 111.99 487.57 113.324 483.278 114.948C479.102 116.456 475.042 118.312 471.098 120.516C467.154 122.604 463.616 125.04 460.484 127.824C458.512 129.564 456.54 131.768 454.568 134.436C452.596 137.104 451.61 139.772 451.61 142.44ZM425.684 154.794C425.684 154.214 425.916 153.112 426.38 151.488C426.844 149.864 427.366 148.124 427.946 146.268C428.642 144.412 429.28 142.614 429.86 140.874C430.556 139.134 431.02 137.858 431.252 137.046C436.472 121.386 441.75 105.9 447.086 90.5879C452.422 75.2759 458.048 60.0219 463.964 44.8259C465.472 40.9979 467.096 36.6479 468.836 31.7759C470.576 26.9039 472.432 22.7279 474.404 19.2479C474.984 18.3199 475.796 17.8559 476.84 17.8559C478.696 17.8559 479.624 18.7839 479.624 20.6399C479.624 20.9879 479.566 21.2199 479.45 21.3359C477.826 26.0919 476.028 30.7899 474.056 35.4299C472.084 39.9539 470.17 44.5359 468.314 49.1759C462.398 64.3719 456.772 79.5099 451.436 94.5899C446.1 109.67 441.054 124.982 436.298 140.526C436.066 141.222 435.66 142.498 435.08 144.354C434.616 146.326 434.036 148.298 433.34 150.27C432.644 152.242 431.89 153.982 431.078 155.49C430.266 156.998 429.454 157.752 428.642 157.752C426.67 157.752 425.684 156.766 425.684 154.794Z" fill="#262626"></path><path d="M526.242 124.866C526.242 121.618 526.822 118.312 527.982 114.948C529.142 111.468 530.766 108.336 532.854 105.552C534.942 102.768 537.436 100.506 540.336 98.7659C543.236 96.9099 546.426 95.9819 549.906 95.9819C550.254 95.9819 550.718 95.9819 551.298 95.9819C551.994 95.9819 552.632 96.0979 553.212 96.3299C553.908 96.4459 554.488 96.6779 554.952 97.0259C555.416 97.2579 555.648 97.6639 555.648 98.2439C555.648 99.1719 555.358 99.9839 554.778 100.68L555.126 101.028C557.33 100.912 559.418 100.448 561.39 99.6359C563.478 98.7079 565.566 97.7799 567.654 96.8519C569.742 95.8079 571.83 94.8799 573.918 94.0679C576.122 93.2559 578.326 92.8499 580.53 92.8499C584.822 92.8499 586.968 94.9379 586.968 99.1139C586.968 100.622 586.62 102.304 585.924 104.16C585.228 105.9 584.358 107.756 583.314 109.728C582.386 111.584 581.458 113.44 580.53 115.296C579.718 117.152 579.138 118.834 578.79 120.342C580.414 118.486 582.386 116.05 584.706 113.034C587.142 109.902 589.694 106.886 592.362 103.986C595.146 101.086 597.988 98.5919 600.888 96.5039C603.788 94.4159 606.514 93.3719 609.066 93.3719C611.386 93.3719 613.126 94.1259 614.286 95.6339C615.446 97.1419 616.026 98.9399 616.026 101.028C616.026 103.116 615.678 105.204 614.982 107.292C614.402 109.264 613.764 111.236 613.068 113.208C612.372 115.18 611.676 117.21 610.98 119.298C610.4 121.27 610.11 123.3 610.11 125.388C610.11 128.056 611.56 129.39 614.46 129.39C617.244 129.39 620.028 128.346 622.812 126.258C625.712 124.054 628.38 121.618 630.816 118.95C633.252 116.166 635.398 113.614 637.254 111.294C639.226 108.974 640.792 107.64 641.952 107.292C642.532 107.292 643.054 107.524 643.518 107.988C644.098 108.452 644.388 109.032 644.388 109.728C644.388 110.076 644.272 110.482 644.04 110.946C642.648 113.034 640.792 115.412 638.472 118.08C636.268 120.748 633.774 123.3 630.99 125.736C628.322 128.172 625.538 130.202 622.638 131.826C619.854 133.45 617.128 134.262 614.46 134.262C611.676 134.262 609.414 133.508 607.674 132C606.05 130.608 605.238 128.462 605.238 125.562C605.238 123.474 605.528 121.444 606.108 119.472C606.688 117.384 607.326 115.412 608.022 113.556C608.834 111.584 609.53 109.612 610.11 107.64C610.69 105.552 610.98 103.464 610.98 101.376C610.98 100.68 610.806 99.9839 610.458 99.2879C610.226 98.5919 609.646 98.2439 608.718 98.2439C606.978 98.2439 604.89 99.2299 602.454 101.202C600.018 103.174 597.524 105.668 594.972 108.684C592.42 111.584 589.81 114.774 587.142 118.254C584.474 121.734 582.038 124.982 579.834 127.998C577.63 130.898 575.658 133.334 573.918 135.306C572.178 137.278 570.96 138.264 570.264 138.264C569.684 138.264 569.162 138.032 568.698 137.568C568.35 137.104 568.176 136.582 568.176 136.002C568.176 134.03 568.872 131.246 570.264 127.65C571.656 124.054 573.222 120.4 574.962 116.688C576.702 112.86 578.268 109.38 579.66 106.248C581.052 103.116 581.748 100.97 581.748 99.8099C581.748 98.6499 581.226 98.0699 580.182 98.0699C578.326 98.0699 576.354 98.4179 574.266 99.1139C572.294 99.6939 570.322 100.39 568.35 101.202C566.378 102.014 564.348 102.884 562.26 103.812C560.288 104.624 558.374 105.204 556.518 105.552V106.074C556.518 108.742 555.996 111.874 554.952 115.47C554.024 119.066 552.632 122.488 550.776 125.736C549.036 128.868 546.832 131.536 544.164 133.74C541.612 135.944 538.77 137.046 535.638 137.046C532.158 137.046 529.722 135.77 528.33 133.218C526.938 130.666 526.242 127.882 526.242 124.866ZM531.114 124.866C531.114 126.49 531.404 128.114 531.984 129.738C532.68 131.362 534.014 132.174 535.986 132.174C538.306 132.174 540.394 131.13 542.25 129.042C544.222 126.838 545.846 124.286 547.122 121.386C548.514 118.37 549.558 115.354 550.254 112.338C551.066 109.206 551.472 106.712 551.472 104.856C550.66 104.044 550.254 103.174 550.254 102.246C550.254 101.898 550.37 101.492 550.602 101.028L549.732 100.854C546.948 100.854 544.396 101.666 542.076 103.29C539.872 104.914 537.958 106.944 536.334 109.38C534.71 111.7 533.434 114.252 532.506 117.036C531.578 119.82 531.114 122.43 531.114 124.866Z" fill="#262626"></path></svg>